<svg width="100" height="100" viewBox="0 0 22 22" xmlns="http://www.w3.org/2000/svg">
    <path d="M5.75695 5.71142C5.49742 5.70283 5.2482 5.80939 5.07461 6.00189L0.451172 11L5.07461 15.9981C5.28602 16.2336 5.60914 16.3385 5.92023 16.2697C6.22961 16.201 6.47883 15.9706 6.57164 15.6664C6.66445 15.3622 6.58711 15.0322 6.36711 14.8019L3.66352 11.88H20.6809C20.9988 11.8852 21.2927 11.7185 21.4526 11.4435C21.6141 11.1702 21.6141 10.8299 21.4526 10.5566C21.2927 10.2816 20.9988 10.1149 20.6809 10.12H3.66352L6.36711 7.19814C6.60602 6.94548 6.67477 6.57767 6.54242 6.25626C6.4118 5.93658 6.10414 5.72173 5.75695 5.71142Z"/>
</svg>
