<svg width="100" height="100" viewBox="0 0 14 14" xmlns="http://www.w3.org/2000/svg">
<path d="M3.12132 13.4645C2.40727 14.1785 1.24958 14.1785 0.535533 13.4645C-0.178512 12.7504 -0.178512 11.5927 0.535533 10.8787L10.8787 0.535534C11.5927 -0.178511 12.7504 -0.178511 13.4645 0.535534C14.1785 1.24958 14.1785 2.40728 13.4645 3.12132L3.12132 13.4645Z"/>
<path d="M0.535534 3.12132C-0.178512 2.40727 -0.178512 1.24958 0.535534 0.535533C1.24958 -0.178512 2.40728 -0.178512 3.12132 0.535533L13.4645 10.8787C14.1785 11.5927 14.1785 12.7504 13.4645 13.4645C12.7504 14.1785 11.5927 14.1785 10.8787 13.4645L0.535534 3.12132Z" />
</svg>
