<svg width="100" height="100" viewBox="0 0 20 17" xmlns="http://www.w3.org/2000/svg">
<path d="M10.0631 0.52002C7.40527 0.52002 4.96657 1.59008 3.08242 3.35338C3.03844 3.3924 3.00273 3.43984 2.97739 3.49289C2.95205 3.54595 2.9376 3.60354 2.93489 3.66227C2.93218 3.72101 2.94127 3.77969 2.96162 3.83485C2.98197 3.89001 3.01317 3.94053 3.05337 3.98344C3.09357 4.02634 3.14197 4.06075 3.19569 4.08463C3.24941 4.10852 3.30738 4.1214 3.36617 4.12251C3.42495 4.12362 3.48336 4.11293 3.53795 4.09109C3.59254 4.06925 3.64219 4.03669 3.68398 3.99533C5.42192 2.36887 7.64073 1.40002 10.0631 1.40002C12.4734 1.40002 14.6816 2.35928 16.4156 3.97127C16.4577 4.01205 16.5074 4.04403 16.562 4.06532C16.6166 4.08662 16.6749 4.09681 16.7334 4.09529C16.792 4.09377 16.8496 4.08057 16.903 4.05647C16.9564 4.03237 17.0045 3.99786 17.0443 3.95495C17.0842 3.91204 17.1151 3.8616 17.1352 3.80659C17.1554 3.75158 17.1643 3.69311 17.1615 3.6346C17.1588 3.57608 17.1444 3.51871 17.1191 3.46585C17.0939 3.41299 17.0584 3.36569 17.0146 3.32674C15.1345 1.57888 12.7076 0.52002 10.0631 0.52002ZM19.0152 6.21252C18.9238 6.21402 18.8352 6.24396 18.7615 6.29817C18.6879 6.35238 18.633 6.42817 18.6045 6.51502C16.8396 9.79166 13.668 11.96 10.0511 11.96C6.44223 11.96 3.27702 9.80037 1.50977 6.53564C1.4762 6.43661 1.40847 6.35276 1.3187 6.29912C1.22893 6.24549 1.123 6.22557 1.01988 6.24295C0.916765 6.26032 0.823207 6.31385 0.755972 6.39394C0.688737 6.47403 0.652222 6.57545 0.652968 6.68002V6.7015C0.652758 6.77402 0.670471 6.84546 0.704531 6.90947C1.30214 8.02532 2.05807 9.02544 2.93633 9.87346L0.438125 12.5392C0.358353 12.6245 0.31571 12.7379 0.319578 12.8546C0.323446 12.9713 0.373507 13.0817 0.45875 13.1614C0.543992 13.2412 0.657432 13.2838 0.774115 13.28C0.890798 13.2761 1.00117 13.226 1.08094 13.1408L3.59375 10.4587C4.31949 11.0573 5.11302 11.5608 5.96133 11.9463L4.32422 15.2867C4.29881 15.3386 4.28388 15.395 4.28028 15.4527C4.27667 15.5104 4.28447 15.5682 4.30322 15.6229C4.32197 15.6775 4.35131 15.728 4.38955 15.7713C4.4278 15.8146 4.47421 15.85 4.52613 15.8754C4.57805 15.9008 4.63447 15.9157 4.69215 15.9193C4.74984 15.9229 4.80767 15.9151 4.86234 15.8963C4.91701 15.8776 4.96744 15.8482 5.01077 15.81C5.05409 15.7717 5.08946 15.7253 5.11484 15.6734L6.78031 12.2737C7.66365 12.5852 8.59505 12.7738 9.56039 12.822C9.55998 12.828 9.55969 12.834 9.55953 12.84V16.36C9.55871 16.4183 9.56948 16.4762 9.59122 16.5303C9.61296 16.5844 9.64524 16.6337 9.68618 16.6752C9.72712 16.7167 9.7759 16.7497 9.8297 16.7722C9.88349 16.7947 9.94122 16.8063 9.99953 16.8063C10.0578 16.8063 10.1156 16.7947 10.1694 16.7722C10.2232 16.7497 10.2719 16.7167 10.3129 16.6752C10.3538 16.6337 10.3861 16.5844 10.4078 16.5303C10.4296 16.4762 10.4404 16.4183 10.4395 16.36V12.84C10.4393 12.8351 10.439 12.8303 10.4387 12.8254C11.4357 12.7862 12.3973 12.5943 13.3081 12.2754L14.8808 15.6648C14.9031 15.7201 14.9364 15.7704 14.9787 15.8124C15.0211 15.8545 15.0715 15.8875 15.127 15.9094C15.1825 15.9314 15.2418 15.9418 15.3015 15.9401C15.3611 15.9384 15.4198 15.9246 15.4739 15.8995C15.5281 15.8745 15.5765 15.8386 15.6164 15.7942C15.6562 15.7498 15.6867 15.6978 15.7058 15.6413C15.7249 15.5847 15.7323 15.5249 15.7276 15.4654C15.7229 15.4059 15.7061 15.348 15.6783 15.2953L14.1254 11.9463C14.9207 11.5872 15.6687 11.1276 16.3572 10.5799L18.9284 13.1511C18.9744 13.199 19.0306 13.2358 19.0928 13.2589C19.155 13.2819 19.2216 13.2906 19.2877 13.2843C19.3021 13.283 19.3164 13.281 19.3306 13.2783C19.4097 13.2628 19.483 13.2259 19.5425 13.1716C19.602 13.1173 19.6455 13.0477 19.6682 12.9704C19.6909 12.8931 19.6919 12.8111 19.6712 12.7332C19.6505 12.6554 19.6088 12.5847 19.5506 12.5289L17.0241 10.0024C17.9678 9.12153 18.7789 8.07079 19.4097 6.88713C19.4439 6.82345 19.4619 6.75231 19.4621 6.68002V6.65853C19.4629 6.59967 19.4519 6.54124 19.4297 6.4867C19.4075 6.43217 19.3746 6.38264 19.333 6.34105C19.2913 6.29946 19.2417 6.26666 19.1871 6.24458C19.1326 6.2225 19.0741 6.2116 19.0152 6.21252Z"/>
</svg>
