<svg width="100" height="100" viewBox="0 0 22 17" xmlns="http://www.w3.org/2000/svg">
<path d="M10.9997 0.279785C5.13359 0.279785 0.549687 5.71104 0.549687 5.71104C0.405313 5.87604 0.405313 6.12354 0.549687 6.28854C0.549687 6.28854 5.13359 11.7198 10.9997 11.7198C16.8658 11.7198 21.4497 6.28854 21.4497 6.28854C21.5941 6.12354 21.5941 5.87604 21.4497 5.71104C21.4497 5.71104 16.8658 0.279785 10.9997 0.279785ZM10.9997 1.15979C12.1564 1.15979 13.2616 1.39869 14.2859 1.76479C14.9734 2.54166 15.3997 3.55744 15.3997 4.67979C15.3997 7.11525 13.4352 9.07979 10.9997 9.07979C8.56422 9.07979 6.59969 7.11525 6.59969 4.67979C6.59969 3.55744 7.01219 2.54166 7.69969 1.76479C8.7275 1.39697 9.83953 1.15979 10.9997 1.15979ZM6.24219 2.41104C5.91219 3.09854 5.71969 3.86854 5.71969 4.67979C5.71969 7.59135 8.08813 9.95979 10.9997 9.95979C13.9113 9.95979 16.2797 7.59135 16.2797 4.67979C16.2797 3.87197 16.0958 3.09854 15.7709 2.41104C18.2563 3.67432 20.0438 5.5065 20.5009 5.99978C19.7859 6.77322 15.8277 10.8398 10.9997 10.8398C6.17172 10.8398 2.21344 6.77322 1.49844 5.99978C1.95563 5.50479 3.75172 3.67432 6.24219 2.41104ZM10.9997 2.47979C9.78453 2.47979 8.79969 3.46463 8.79969 4.67979C8.79969 5.89494 9.78453 6.87979 10.9997 6.87979C12.2148 6.87979 13.1997 5.89494 13.1997 4.67979C13.1997 3.46463 12.2148 2.47979 10.9997 2.47979Z"/>
</svg>
