<svg width="100" height="100" viewBox="0 0 20 20" xmlns="http://www.w3.org/2000/svg">
    <path d="M8.23977 0.319824C4.10445 0.319824 0.759766 3.66451 0.759766 7.79982C0.759766 11.9351 4.10445 15.2798 8.23977 15.2798C9.71617 15.2798 11.0826 14.8467 12.241 14.1111L17.6448 19.5148L19.5148 17.6448L14.1798 12.3236C15.1388 11.0654 15.7198 9.50654 15.7198 7.79982C15.7198 3.66451 12.3751 0.319824 8.23977 0.319824ZM8.23977 2.07982C11.4074 2.07982 13.9598 4.63217 13.9598 7.79982C13.9598 10.9675 11.4074 13.5198 8.23977 13.5198C5.07211 13.5198 2.51977 10.9675 2.51977 7.79982C2.51977 4.63217 5.07211 2.07982 8.23977 2.07982Z"/>
</svg>
